<svg width="64" height="64" viewBox="0 0 64 64" fill="none" xmlns="http://www.w3.org/2000/svg">
<path fill-rule="evenodd" clip-rule="evenodd" d="M60 31.9999C60 31.4695 59.7893 30.9608 59.4142 30.5857C59.0391 30.2106 58.5304 29.9999 58 29.9999L10.828 29.9999L23.416 17.4159C23.7916 17.0404 24.0025 16.531 24.0025 15.9999C24.0025 15.4688 23.7916 14.9595 23.416 14.5839C23.0405 14.2084 22.5311 13.9974 22 13.9974C21.4689 13.9974 20.9596 14.2084 20.584 14.5839L4.58401 30.5839C4.39776 30.7697 4.24999 30.9904 4.14916 31.2334C4.04833 31.4764 3.99643 31.7368 3.99643 31.9999C3.99643 32.263 4.04833 32.5235 4.14916 32.7664C4.24999 33.0094 4.39776 33.2301 4.58401 33.4159L20.584 49.4159C20.9595 49.7915 21.4689 50.0024 22 50.0024C22.5311 50.0024 23.0405 49.7915 23.416 49.4159C23.7915 49.0404 24.0025 48.531 24.0025 47.9999C24.0025 47.4688 23.7915 46.9595 23.416 46.5839L10.828 33.9999L58 33.9999C58.5304 33.9999 59.0391 33.7892 59.4142 33.4141C59.7893 33.0391 60 32.5303 60 31.9999Z" fill="#424D79"/>
</svg>
