<svg width="32" height="32" viewBox="0 0 32 32" fill="none" xmlns="http://www.w3.org/2000/svg">
<path fill-rule="evenodd" clip-rule="evenodd" d="M30 16C30 15.7347 29.8946 15.4804 29.7071 15.2929C29.5196 15.1053 29.2652 15 29 15L5.414 15L11.708 8.70796C11.8958 8.52018 12.0013 8.26551 12.0013 7.99996C12.0013 7.73441 11.8958 7.47973 11.708 7.29196C11.5202 7.10418 11.2656 6.99869 11 6.99869C10.7345 6.99869 10.4798 7.10418 10.292 7.29196L2.292 15.292C2.19888 15.3848 2.12499 15.4952 2.07458 15.6167C2.02417 15.7382 1.99822 15.8684 1.99822 16C1.99822 16.1315 2.02417 16.2617 2.07458 16.3832C2.12499 16.5047 2.19888 16.6151 2.292 16.708L10.292 24.708C10.4798 24.8957 10.7345 25.0012 11 25.0012C11.2656 25.0012 11.5202 24.8957 11.708 24.708C11.8958 24.5202 12.0013 24.2655 12.0013 24C12.0013 23.7344 11.8958 23.4797 11.708 23.292L5.414 17L29 17C29.2652 17 29.5196 16.8946 29.7071 16.7071C29.8946 16.5195 30 16.2652 30 16Z" fill="#424D79"/>
</svg>
