<svg width="64" height="64" viewBox="0 0 64 64" fill="none" xmlns="http://www.w3.org/2000/svg">
<path fill-rule="evenodd" clip-rule="evenodd" d="M4 31.9999C4 31.4695 4.21071 30.9608 4.58579 30.5857C4.96086 30.2106 5.46957 29.9999 6 29.9999L53.172 29.9999L40.584 17.4159C40.2084 17.0404 39.9975 16.531 39.9975 15.9999C39.9975 15.4688 40.2084 14.9595 40.584 14.5839C40.9595 14.2084 41.4689 13.9974 42 13.9974C42.5311 13.9974 43.0404 14.2084 43.416 14.5839L59.416 30.5839C59.6022 30.7697 59.75 30.9904 59.8508 31.2334C59.9517 31.4764 60.0036 31.7368 60.0036 31.9999C60.0036 32.263 59.9517 32.5235 59.8508 32.7664C59.75 33.0094 59.6022 33.2301 59.416 33.4159L43.416 49.4159C43.0405 49.7915 42.5311 50.0024 42 50.0024C41.4689 50.0024 40.9595 49.7915 40.584 49.4159C40.2085 49.0404 39.9975 48.531 39.9975 47.9999C39.9975 47.4688 40.2085 46.9595 40.584 46.5839L53.172 33.9999L6 33.9999C5.46957 33.9999 4.96086 33.7892 4.58579 33.4141C4.21071 33.0391 4 32.5303 4 31.9999Z" fill="#424D79"/>
</svg>
